<svg id="Layer_1" data-name="Layer 1" xmlns="http://www.w3.org/2000/svg" viewBox="0 0 120 120"><defs><style>.cls-1,.cls-3{fill:#fff;}.cls-1{stroke:#929497;stroke-linecap:round;stroke-linejoin:round;stroke-width:3.33px;}.cls-2{fill:#c41230;}</style></defs><title>sentry-one-product-icon</title><path class="cls-1" d="M100,82.93c0,6-19.15,14.63-42.77,14.63S14.42,88.9,14.42,82.93V41c0-6,19.15-10.81,42.77-10.81S100,35,100,41V82.93Z"/><path class="cls-1" d="M100,41.8c0,6-19.15,10.81-42.77,10.81S14.42,47.77,14.42,41.8"/><path class="cls-1" d="M100,63.29c0,6-19.15,10.81-42.77,10.81S14.42,69.26,14.42,63.29"/><circle class="cls-2" cx="95.34" cy="26.66" r="21.66"/><path class="cls-3" d="M83.26,30.83a3.51,3.51,0,0,0,.94-0.11,1.65,1.65,0,0,0,.6-0.29A1,1,0,0,0,85.11,30a1.69,1.69,0,0,0,.09-0.56,1.33,1.33,0,0,0-.55-1.09,7.55,7.55,0,0,0-1.9-.93q-0.59-.23-1.18-0.53a4.29,4.29,0,0,1-1.05-.75,3.55,3.55,0,0,1-.76-1.1,3.75,3.75,0,0,1-.29-1.57,4.25,4.25,0,0,1,.31-1.66,3.52,3.52,0,0,1,.88-1.26,3.92,3.92,0,0,1,1.38-.8,5.64,5.64,0,0,1,1.83-.28,6.77,6.77,0,0,1,2.09.29,7.06,7.06,0,0,1,1.45.63l-0.78,2.36a7,7,0,0,0-1.12-.51A4.39,4.39,0,0,0,84,22.05a2.48,2.48,0,0,0-1.39.3,1,1,0,0,0-.42.91,1.14,1.14,0,0,0,.16.61,1.59,1.59,0,0,0,.44.45,3.71,3.71,0,0,0,.66.36L84.3,25a17.13,17.13,0,0,1,1.63.76,4.36,4.36,0,0,1,1.15.87,3.23,3.23,0,0,1,.68,1.17A5.19,5.19,0,0,1,88,29.47a3.64,3.64,0,0,1-1.18,2.89,5.26,5.26,0,0,1-3.54,1,8.87,8.87,0,0,1-1.44-.11A8.45,8.45,0,0,1,80.69,33a6,6,0,0,1-.85-0.33,6.12,6.12,0,0,1-.6-0.33L80,30a6.39,6.39,0,0,0,1.32.59A6.22,6.22,0,0,0,83.26,30.83Z"/><path class="cls-3" d="M101.47,26.45a9.47,9.47,0,0,1-.31,2.53,6.82,6.82,0,0,1-.87,2,5.33,5.33,0,0,1-1.34,1.4,5.23,5.23,0,0,1-1.71.81,1.09,1.09,0,0,0,.38.62,2.39,2.39,0,0,0,.74.39,5.41,5.41,0,0,0,1,.23l1.29,0.13-0.55,2.19a11.7,11.7,0,0,1-2.31-.3,5.53,5.53,0,0,1-1.63-.66,3.35,3.35,0,0,1-1.05-1,4.94,4.94,0,0,1-.6-1.42,5.73,5.73,0,0,1-2-.66A5.21,5.21,0,0,1,91,31.27a6.5,6.5,0,0,1-1.06-2.07,9.16,9.16,0,0,1-.38-2.75,8.57,8.57,0,0,1,.48-3,6.49,6.49,0,0,1,1.31-2.18,5.33,5.33,0,0,1,1.9-1.33,6,6,0,0,1,2.27-.44,6.11,6.11,0,0,1,2.32.44,5.24,5.24,0,0,1,1.9,1.33A6.36,6.36,0,0,1,101,23.44,8.87,8.87,0,0,1,101.47,26.45Zm-9.15,0a6.67,6.67,0,0,0,.22,1.77,4.21,4.21,0,0,0,.62,1.35,2.82,2.82,0,0,0,1,.87,3.1,3.1,0,0,0,2.69,0,2.8,2.8,0,0,0,1-.87,4.23,4.23,0,0,0,.62-1.35,6.67,6.67,0,0,0,.22-1.77,6.78,6.78,0,0,0-.22-1.78,4.22,4.22,0,0,0-.62-1.36,2.81,2.81,0,0,0-1-.87,2.89,2.89,0,0,0-1.34-.31,2.8,2.8,0,0,0-1.35.32,2.91,2.91,0,0,0-1,.88,4.2,4.2,0,0,0-.62,1.36A6.7,6.7,0,0,0,92.32,26.45Z"/><path class="cls-3" d="M111.72,30.54v2.57h-8V19.8h2.7V30.54h5.31Z"/></svg>